<?xml version="1.0" encoding="UTF-8" standalone="yes"?>
<svg xmlns="http://www.w3.org/2000/svg" xmlns:xlink="http://www.w3.org/1999/xlink" width="1920.000000px" height="1080.000000px" version="1.1" viewBox="82 -59 960 540">
  <!--
	Exported with Concepts: Smarter Sketching
	Version: 814 on iOS 13.3
	https://concepts.app/
	-->
  <title>the_drawing</title>
  <desc>Drawing exported from Concepts: Smarter Sketching</desc>
  <g id="Layer1" opacity="1.000">
    <path id="STROKE_fee6e9e7-6ac5-4e64-949f-e43ec7f193fd" opacity="1.000" fill="none" stroke="#282a63" stroke-width="1.628" stroke-opacity="1.000" stroke-linecap="round" stroke-linejoin="round" d="M 462.508 219.150 Q 462.521 219.124 462.756 219.020 Q 462.991 218.915 463.188 218.743 Q 463.386 218.572 463.428 218.439 Q 463.471 218.306 463.456 218.119 Q 463.440 217.933 463.388 217.927 Q 463.335 217.922 463.311 217.870 Q 463.287 217.818 461.590 217.875 Q 459.893 217.933 457.499 219.111 Q 457.386 219.407 457.397 219.444 Q 457.409 219.480 457.377 219.512 Q 457.346 219.543 458.814 220.346 Q 460.282 221.150 461.375 221.969 Q 462.469 222.788 463.020 223.336 Q 463.571 223.883 463.712 225.117 Q 463.853 226.351 463.800 227.062 Q 463.746 227.773 463.430 228.404 Q 463.114 229.036 461.932 229.482 Q 460.750 229.929 459.941 230.027 Q 459.133 230.126 457.931 229.522 Q 456.729 228.917 456.004 228.304 Q 455.278 227.692 454.916 227.397 Q 454.555 227.102 454.350 226.913 "></path>
    <path id="STROKE_b735079d-1849-42b8-a941-719da25b8d0f" opacity="1.000" fill="none" stroke="#282a63" stroke-width="1.628" stroke-opacity="1.000" stroke-linecap="round" stroke-linejoin="round" d="M 472.042 224.778 Q 472.810 224.747 473.001 224.676 Q 473.192 224.606 473.290 224.468 Q 473.388 224.329 473.409 224.316 Q 473.430 224.303 473.382 224.187 Q 473.333 224.071 473.095 223.886 Q 472.858 223.700 472.635 223.661 Q 472.411 223.622 471.890 223.615 Q 471.369 223.608 471.149 223.645 Q 470.928 223.682 469.672 224.170 Q 468.416 224.658 467.604 225.130 Q 466.792 225.601 466.564 225.897 Q 466.337 226.193 466.243 226.541 Q 466.149 226.889 466.128 227.117 Q 466.106 227.346 466.185 227.953 Q 466.263 228.559 466.655 229.078 Q 467.048 229.598 467.957 230.073 Q 468.866 230.549 470.175 230.698 Q 471.484 230.848 472.245 230.620 Q 473.007 230.392 473.760 229.615 Q 474.514 228.837 475.032 228.132 Q 475.552 227.426 475.951 227.443 Q 476.351 227.461 476.683 227.687 Q 477.016 227.913 477.186 228.178 Q 477.356 228.442 477.369 228.460 Q 477.383 228.478 477.472 228.947 L 477.397 229.040 "></path>
  </g>
  <g id="Layer2" opacity="0.500">
    <path id="STROKE_4aca4786-ec03-4bb7-a9cb-c6cda1e44933" opacity="1.000" fill="none" stroke="#282a63" stroke-width="1.293" stroke-opacity="1.000" stroke-linecap="round" stroke-linejoin="round" d="M 163.684 75.417 Q 164.128 75.235 165.977 82.294 Q 165.862 82.357 165.051 81.282 Q 164.241 80.208 163.961 79.764 "></path>
    <circle id="STROKE_9b749c27-cc4a-4083-9db6-7946bdda3359" opacity="1.000" fill="#282a63" stroke="#282a63" stroke-width="0.1" stroke-opacity="1.000" fill-opacity="1.000" cx="163.503" cy="71.482" r="0.647"></circle>
  </g>
</svg>